<?xml version="1.0" encoding="UTF-8"?>
<svg xmlns="http://www.w3.org/2000/svg" xmlns:xlink="http://www.w3.org/1999/xlink" width="2501" height="2501" viewBox="0 0 2501 2501">
<path fill-rule="evenodd" fill="rgb(30.200195%, 30.200195%, 30.200195%)" fill-opacity="1" d="M 1205.808594 1588.289062 C 1232.378906 1614.855469 1275.851562 1614.855469 1302.421875 1588.289062 L 1592.238281 1298.460938 C 1618.808594 1271.898438 1618.808594 1228.421875 1592.238281 1201.859375 L 1302.421875 912.03125 C 1275.851562 885.460938 1232.378906 885.460938 1205.808594 912.03125 C 1179.238281 938.601562 1179.238281 982.070312 1205.808594 1008.640625 L 1447.328125 1250.160156 L 1205.808594 1491.679688 C 1179.238281 1518.246094 1179.238281 1561.722656 1205.808594 1588.289062 "/>
<path fill-rule="evenodd" fill="rgb(30.200195%, 30.200195%, 30.200195%)" fill-opacity="1" d="M 909.4375 1588.289062 C 936.003906 1614.855469 979.480469 1614.855469 1006.050781 1588.289062 L 1295.871094 1298.460938 C 1322.441406 1271.898438 1322.441406 1228.421875 1295.871094 1201.859375 L 1006.050781 912.03125 C 979.480469 885.460938 936.003906 885.460938 909.4375 912.03125 C 882.871094 938.601562 882.871094 982.070312 909.4375 1008.640625 L 1150.960938 1250.160156 L 909.4375 1491.679688 C 882.871094 1518.246094 882.871094 1561.722656 909.4375 1588.289062 "/>
</svg>
